<?xml version="1.0" encoding="UTF-8" standalone="no"?>
<svg
   xmlns:dc="http://purl.org/dc/elements/1.1/"
   xmlns:cc="http://creativecommons.org/ns#"
   xmlns:rdf="http://www.w3.org/1999/02/22-rdf-syntax-ns#"
   xmlns:svg="http://www.w3.org/2000/svg"
   xmlns="http://www.w3.org/2000/svg"
   xmlns:sodipodi="http://sodipodi.sourceforge.net/DTD/sodipodi-0.dtd"
   xmlns:inkscape="http://www.inkscape.org/namespaces/inkscape"
   width="85mm"
   height="85mm"
   viewBox="0 0 84.999999 84.999999"
   version="1.1"
   id="svg8"
   inkscape:version="1.0.2 (e86c8708, 2021-01-15)"
   sodipodi:docname="logo-bg.svg">
  <defs
     id="defs2" />
  <sodipodi:namedview
     id="base"
     pagecolor="#ffffff"
     bordercolor="#666666"
     borderopacity="1.0"
     inkscape:pageopacity="0.0"
     inkscape:pageshadow="2"
     inkscape:zoom="0.7995682"
     inkscape:cx="216.97462"
     inkscape:cy="7.5322151"
     inkscape:document-units="mm"
     inkscape:current-layer="layer2"
     inkscape:document-rotation="0"
     showgrid="false"
     inkscape:window-width="1680"
     inkscape:window-height="997"
     inkscape:window-x="0"
     inkscape:window-y="25"
     inkscape:window-maximized="1" />
  <metadata
     id="metadata5">
    <rdf:RDF>
      <cc:Work
         rdf:about="">
        <dc:format>image/svg+xml</dc:format>
        <dc:type
           rdf:resource="http://purl.org/dc/dcmitype/StillImage" />
        <dc:title></dc:title>
      </cc:Work>
    </rdf:RDF>
  </metadata>
  <g
     inkscape:groupmode="layer"
     id="layer2"
     inkscape:label="BackGround"
     transform="translate(3.5929017,3.7542829)">
    <rect
       style="fill:#5c2626;fill-opacity:1;stroke:#5c2626;stroke-width:0.13069;stroke-linecap:butt;stroke-linejoin:round;stroke-miterlimit:4;stroke-dasharray:none"
       id="rect2890"
       width="84.869308"
       height="84.869308"
       x="-3.5275567"
       y="-3.6889379"
       ry="9.4492712" />
  </g>
  <g
     inkscape:label="Layer 1"
     inkscape:groupmode="layer"
     id="layer1"
     transform="translate(-67.315001,-103.7979)">
    <path
       id="path833"
       style="fill:#f9fbf2;fill-opacity:1;stroke:#5c2626;stroke-width:0.244774;stroke-linejoin:round;stroke-opacity:1"
       inkscape:transform-center-x="-5.9448085"
       inkscape:transform-center-y="1.8696917"
       d="m 109.80828,109.63063 a 37.377613,37.377613 0 0 0 -21.778511,7.00474 c 1.084307,3.05745 -0.482955,14.40303 8.146788,21.27674 0.914223,0.50501 1.818653,1.10187 2.706296,1.80506 3.063687,1.70286 7.068887,2.93722 12.323797,3.39875 5.25576,0.46161 9.43568,-0.0539 12.78165,-1.19424 1.01032,-0.5362 2.01578,-0.96581 3.01325,-1.30276 8.31802,-4.44374 10.09391,-13.30017 11.45253,-17.6289 a 37.377613,37.377613 0 0 0 -28.63908,-13.35939 37.377613,37.377613 0 0 0 -0.007,0 z m 17.19327,30.98829 c -0.92164,0.49236 -1.92261,0.93106 -3.01325,1.30276 -3.09961,1.64503 -6.23923,4.29173 -9.29194,8.34368 -3.05277,4.05202 -4.66773,7.71551 -5.29115,11.01225 -0.0116,1.09157 -0.11984,2.12585 -0.30851,3.1073 -0.0721,9.42016 7.87768,15.40959 10.92336,18.58026 a 37.377613,37.377613 0 0 0 27.1725,-35.95698 37.377613,37.377613 0 0 0 -0.19482,-3.8101 c -4.63363,-2.05982 -12.03282,-5.26926 -19.99619,-2.57917 z m -17.90485,23.76599 c 0.008,-0.99726 0.10529,-2.03265 0.30851,-3.1073 0.0357,-3.3483 -0.83041,-7.22995 -3.03341,-11.74347 -2.20263,-4.51278 -4.76695,-7.66063 -7.488947,-9.81697 -0.998958,-0.55525 -1.897227,-1.16063 -2.706296,-1.80506 -8.602099,-4.75184 -18.049975,-1.31343 -22.512319,-0.40101 a 37.377613,37.377613 0 0 0 -1.226799,9.49709 37.377613,37.377613 0 0 0 21.883936,34.01446 c 3.323318,-2.53839 12.928305,-7.02956 14.775325,-16.63774 z" />
  </g>
</svg>
